<?xml version="1.0" encoding="UTF-8"?>
<!DOCTYPE svg PUBLIC "-//W3C//DTD SVG 1.1//EN" "http://www.w3.org/Graphics/SVG/1.1/DTD/svg11.dtd">
<!-- Creator: CorelDRAW -->
<svg xmlns="http://www.w3.org/2000/svg" xml:space="preserve" width="2.5398mm" height="2.5398mm" version="1.1" style="shape-rendering:geometricPrecision; text-rendering:geometricPrecision; image-rendering:optimizeQuality; fill-rule:evenodd; clip-rule:evenodd"
viewBox="0 0 253.98 253.98"
 xmlns:xlink="http://www.w3.org/1999/xlink"
 xmlns:xodm="http://www.corel.com/coreldraw/odm/2003">
 <defs>
  <style type="text/css">
   <![CDATA[
    .fil1 {fill:#FEFEFE;fill-rule:nonzero}
    .fil0 {fill:url(#id0);fill-rule:nonzero}
   ]]>
  </style>
  <linearGradient id="id0" gradientUnits="userSpaceOnUse" x1="-0.01" y1="127" x2="253.98" y2="127">
   <stop offset="0" style="stop-opacity:1; stop-color:#662CE5"/>
   <stop offset="0.258824" style="stop-opacity:1; stop-color:#6727D3"/>
   <stop offset="0.529412" style="stop-opacity:1; stop-color:#D4116C"/>
   <stop offset="0.768627" style="stop-opacity:1; stop-color:#E73846"/>
   <stop offset="1" style="stop-opacity:1; stop-color:#EB652D"/>
  </linearGradient>
 </defs>
 <g id="Layer_x0020_1">
  <metadata id="CorelCorpID_0Corel-Layer"/>
  <rect class="fil0" x="-0.02" y="-0" width="253.99" height="253.99"/>
  <path class="fil1" d="M123.92 44.2c-14.59,0 -30.87,1.48 -49.06,4.65 -3.59,0.63 -5.49,2.96 -5.49,6.98l0 150.57c0,2.32 1.05,3.38 3.17,3.38l35.53 0c2.11,0 3.17,-1.06 3.17,-3.38l0 -40.18c7.4,0.85 15.43,1.26 24.1,1.26 18.62,0 31.51,-4.65 38.49,-13.74 7.19,-9.09 10.79,-26.22 10.79,-50.97 0,-22.84 -4.23,-38.27 -12.48,-46.31 -8.25,-8.24 -24.32,-12.26 -48.22,-12.26zm2.54 35.95c9.09,0 13.96,2.74 15.02,9.3 1.06,4.87 1.26,7.83 1.26,16.29 0,10.78 -1.26,17.76 -3.8,20.93 -2.32,3.18 -7.83,4.66 -16.07,4.66 -4.44,0 -8.25,-0.22 -11.63,-0.85l0 -50.33 15.22 0z"/>
 </g>
</svg>
