<?xml version="1.0" encoding="UTF-8"?>
<!DOCTYPE svg PUBLIC "-//W3C//DTD SVG 1.1//EN" "http://www.w3.org/Graphics/SVG/1.1/DTD/svg11.dtd">
<!-- Creator: CorelDRAW -->
<svg xmlns="http://www.w3.org/2000/svg" xml:space="preserve" width="127mm" height="42.3332mm" version="1.1" style="shape-rendering:geometricPrecision; text-rendering:geometricPrecision; image-rendering:optimizeQuality; fill-rule:evenodd; clip-rule:evenodd"
viewBox="0 0 12699.98 4233.32"
 xmlns:xlink="http://www.w3.org/1999/xlink"
 xmlns:xodm="http://www.corel.com/coreldraw/odm/2003">
 <defs>
  <style type="text/css">
   <![CDATA[
    .fil1 {fill:none;fill-rule:nonzero}
    .fil0 {fill:#727271;fill-rule:nonzero}
    .fil2 {fill:url(#id1);fill-rule:nonzero}
   ]]>
  </style>
   <clipPath id="id0" style="clip-rule:nonzero">
    <path d="M12058.55 1486c-151.51,0 -279.32,9.11 -379.78,29.19 -18.24,3.61 -27.36,5.46 -27.36,29.21l0 922.01c0,18.24 9.12,27.36 27.36,27.36l120.54 0c18.23,0 27.36,-9.12 27.36,-27.36l0 -827.07 250.11 0c82.15,0 111.42,1.84 155.18,21.92 21.92,9.11 36.56,23.75 45.67,45.59 16.47,42 29.2,109.58 29.2,220.93l0 538.63c0,18.24 9.13,27.36 27.43,27.36l116.79 0c20.15,0 31.04,-9.12 31.04,-27.36l0 -553.2c0,-197.17 -18.24,-299.47 -91.27,-357.85 -36.48,-31.04 -78.48,-49.29 -125.98,-56.63 -47.44,-9.12 -116.8,-12.73 -206.29,-12.73zm-861.79 9.11c-18.23,0 -27.36,9.13 -27.36,27.37l0 943.93c0,18.24 9.13,27.36 27.36,27.36l120.53 0c18.25,0 27.37,-9.12 27.37,-27.36l0 -943.93c0,-18.24 -9.12,-27.37 -27.37,-27.37l-120.53 0zm167.97 -292.1c0,-71.21 -36.48,-105.92 -107.67,-105.92 -71.26,0 -107.74,34.71 -107.74,105.92 0,71.19 36.48,107.67 107.74,107.67 71.19,0 107.67,-36.48 107.67,-107.67zm-472.88 1192.14c0,-69.36 -36.48,-104.07 -107.67,-104.07 -71.26,0 -107.74,34.71 -107.74,104.07 0,71.26 36.48,107.74 107.74,107.74 71.19,0 107.67,-36.48 107.67,-107.74z"/>
   </clipPath>
  <linearGradient id="id1" gradientUnits="userSpaceOnUse" x1="208.09" y1="1702.13" x2="10391.35" y2="1702.13">
   <stop offset="0" style="stop-opacity:1; stop-color:#662CE5"/>
   <stop offset="0.258824" style="stop-opacity:1; stop-color:#6727D3"/>
   <stop offset="0.529412" style="stop-opacity:1; stop-color:#D4116C"/>
   <stop offset="0.768627" style="stop-opacity:1; stop-color:#E73846"/>
   <stop offset="1" style="stop-opacity:1; stop-color:#EB652D"/>
  </linearGradient>
 </defs>
 <g id="Layer_x0020_1">
  <metadata id="CorelCorpID_0Corel-Layer"/>
  <path class="fil0" d="M813.25 3298.27l-26.18 145.86c-23.09,130.77 68.44,211.22 200.19,211.22 87.53,0 155.9,-24.15 210.23,-61.35 9.06,-5.06 10.11,-14.11 6.04,-24.15l-41.21 -77.43c-5.05,-11.08 -13.12,-12.07 -23.16,-5.05 -40.22,24.15 -86.48,40.22 -130.77,40.22 -55.31,0 -79.46,-26.11 -69.42,-79.45l3.02 -14.11 279.65 0c10.1,0 16.14,-4.99 18.11,-15.03l17.12 -97.63c27.17,-147.83 -64.36,-216.27 -193.17,-216.27 -121.71,0 -226.3,61.35 -250.45,193.17zm293.76 35.17l-146.91 0 5.05 -27.16c9.06,-47.25 42.26,-73.43 85.5,-73.43 51.31,0 68.37,35.24 61.35,75.46l-4.99 25.13zm675.5 286.74c9.06,-3.02 13.12,-10.11 15.09,-19.16l45.28 -254.46c27.16,-150.91 -43.24,-241.46 -180.05,-241.46 -81.49,0 -156.95,18.11 -205.24,47.31 -6.04,4 -6.04,11.02 -3.02,20.08l31.23 82.54c4.01,11.02 12.08,13.06 23.1,8.01 30.18,-14.05 75.46,-23.1 119.75,-23.1 63.38,0 77.42,27.16 68.37,76.44l-1.97 16.08c-25.2,-5.06 -55.38,-8.07 -85.56,-8.07 -128.74,0 -211.22,43.3 -228.34,140.87 -20.08,109.64 51.31,190.09 192.18,190.09 77.43,0 151.9,-15.1 209.18,-35.17zm-251.43 -146.91c4.98,-30.19 31.16,-46.26 80.44,-46.26 22.11,0 45.27,3.02 64.37,7.02l-14.04 87.53c-18.11,4.07 -46.33,8.07 -69.42,8.07 -44.29,0 -68.44,-18.11 -61.35,-56.36zm883.76 26.18c21.13,-117.72 -75.46,-166.01 -152.95,-183.07 -48.29,-11.09 -80.44,-20.14 -74.4,-50.33 4,-25.13 27.16,-33.2 64.36,-33.2 42.26,0 80.51,9.06 111.68,27.17 10.04,5.05 18.11,4.07 24.15,-4.99l59.31 -79.52c7.09,-9.06 6.04,-18.11 -4,-24.15 -54.33,-31.17 -107.68,-46.26 -177.03,-46.26 -121.71,0 -206.23,43.24 -227.35,144.88 -22.12,108.66 56.29,167.97 154.91,188.12 40.22,9.05 75.46,17.06 68.37,48.29 -4.98,23.09 -29.13,38.19 -77.42,38.19 -47.31,0 -91.54,-14.05 -130.77,-43.24 -9.06,-6.04 -17.13,-5.06 -24.15,4l-57.35 78.47c-6.03,8.07 -6.03,17.13 3.02,24.15 55.31,45.27 120.73,67.39 204.19,67.39 125.79,0 215.29,-49.28 235.43,-155.9zm456.28 -17.13c-15.09,9.06 -40.28,17.13 -67.45,17.13 -45.21,0 -70.4,-25.13 -59.31,-84.52l50.26 -277.61c2.03,-11.09 -4.01,-18.11 -16.08,-18.11l-115.68 0c-11.09,0 -17.12,5.05 -18.11,15.09l-48.29 266.59c-23.1,135.76 44.29,227.29 168.04,227.29 30.12,0 58.33,-6.04 85.5,-15.09 -11.09,70.47 -44.29,98.62 -107.68,98.62 -44.22,0 -80.44,-13.06 -107.61,-32.22 -10.03,-6.03 -18.11,-6.03 -25.13,4.07l-62.4 79.46c-6.03,8 -6.03,18.11 2.04,24.15 44.22,38.18 100.59,58.33 181.03,58.33 165.02,0 240.41,-72.44 272.63,-252.49l80.44 -455.69c1.05,-11.09 -4.99,-18.11 -16.07,-18.11l-115.68 0c-11.09,0 -17.13,5.05 -19.1,15.09l-61.35 348.02zm623.21 -334.96c-8.07,4 -12.07,10.04 -14.11,18.11l-113.64 648.86c-2.03,11.02 3.02,19.09 15.09,19.09l116.66 0c10.04,0 17.13,-6.03 18.11,-16.07l33.2 -184.12c25.13,14.11 59.32,22.12 97.57,22.12 119.68,0 212.27,-81.5 232.41,-200.19l20.08 -115.68c23.16,-134.78 -57.35,-233.33 -202.16,-233.33 -67.45,0 -144.88,15.09 -203.21,41.21zm235.36 287.72c-11.02,62.33 -42.26,92.51 -93.57,92.51 -23.09,0 -48.22,-7.02 -64.36,-19.09l45.27 -255.5c17.13,-9.06 42.26,-15.09 66.4,-15.09 54.33,0 76.44,25.13 64.37,90.54l-18.11 106.63zm438.11 207.21c10.1,0 16.14,-6.04 18.11,-16.08l65.42 -371.18c17.06,-7.09 39.23,-12.07 65.35,-12.07 21.13,0 41.27,1.97 58.4,4.98 11.02,1.05 19.09,-4 20.07,-15.09l18.11 -98.55c2.04,-10.04 -3.01,-18.11 -14.1,-20.14 -29.14,-6.04 -56.3,-9.06 -83.47,-9.06 -63.38,0 -127.75,15.09 -186.08,42.26 -8.07,4 -13.12,10.04 -15.09,19.09l-79.46 456.74c-2.03,11.03 4,19.1 16.08,19.1l116.66 0zm453.27 0c11.08,0 17.12,-6.04 19.09,-16.08l86.54 -488.89c1.97,-11.09 -4.06,-18.11 -16.14,-18.11l-116.66 0c-10.04,0 -17.12,5.05 -18.11,15.09l-86.48 488.89c-2.03,11.03 4,19.1 15.09,19.1l116.67 0zm138.84 -668.94c10.03,-54.33 -22.18,-94.55 -73.43,-94.55 -46.32,0 -80.51,29.13 -88.58,73.42 -10.04,52.29 22.18,93.57 73.49,93.57 45.21,0 80.45,-31.24 88.52,-72.44zm213.77 668.94c11.09,0 17.12,-5.05 19.09,-16.08l66.4 -377.22c15.1,-7.08 40.23,-12.07 64.37,-12.07 53.35,0 75.46,29.13 63.39,92.52l-50.27 293.75c-1.05,11.03 4.99,19.1 16.08,19.1l115.68 0c11.09,0 17.12,-6.04 19.09,-16.08l50.33 -281.68c25.13,-142.84 -43.24,-239.43 -195.14,-239.43 -65.42,0 -140.87,16.14 -204.26,40.22 -9.05,4.07 -13.05,10.11 -15.09,18.11l-82.48 459.76c-1.96,11.03 4.07,19.1 16.15,19.1l116.66 0zm804.3 -383.26c11.09,0 17.13,-5.05 19.16,-16.07l16.08 -92.58c2.03,-11.09 -4.01,-19.1 -16.08,-19.1l-80.51 0 6.04 -119.74c0.98,-11.03 -5.05,-18.05 -17.13,-18.05l-98.55 0c-11.09,0 -17.13,5.97 -19.09,16.08l-75.46 431.54c-26.18,146.85 45.27,214.24 156.95,214.24 17.06,0 36.15,-1.97 51.24,-4.99 10.11,-1.05 15.1,-7.09 17.13,-17.13l16.08 -93.56c3.01,-13.06 -4.01,-18.11 -16.08,-17.06 -10.04,0 -19.09,0 -27.16,0 -41.21,0 -57.35,-24.15 -49.28,-69.42l34.18 -194.16 82.48 0zm261.15 383.26c11.09,0 17.12,-6.04 19.09,-16.08l86.55 -488.89c1.97,-11.09 -4.07,-18.11 -16.14,-18.11l-116.67 0c-10.04,0 -17.12,5.05 -18.11,15.09l-86.48 488.89c-2.03,11.03 4.01,19.1 15.1,19.1l116.66 0zm138.84 -668.94c10.04,-54.33 -22.18,-94.55 -73.42,-94.55 -46.33,0 -80.51,29.13 -88.58,73.42 -10.04,52.29 22.17,93.57 73.48,93.57 45.21,0 80.45,-31.24 88.52,-72.44zm213.77 668.94c11.09,0 17.13,-5.05 19.09,-16.08l66.41 -377.22c15.09,-7.08 40.22,-12.07 64.36,-12.07 53.35,0 75.46,29.13 63.39,92.52l-50.26 293.75c-1.05,11.03 4.98,19.1 16.07,19.1l115.68 0c11.09,0 17.13,-6.04 19.1,-16.08l50.32 -281.68c25.13,-142.84 -43.24,-239.43 -195.14,-239.43 -65.41,0 -140.87,16.14 -204.25,40.22 -9.06,4.07 -13.06,10.11 -15.1,18.11l-82.47 459.76c-1.97,11.03 4.07,19.1 16.14,19.1l116.66 0zm951.22 -49.28l73.42 -423.54c1.97,-10.04 -2.04,-17.06 -11.09,-22.11 -53.28,-24.15 -122.7,-42.26 -202.16,-42.26 -129.78,0 -236.41,62.4 -261.54,204.19l-17.12 95.61c-24.15,132.8 45.27,223.28 176.04,223.28 28.15,0 61.35,-6.04 89.5,-15.09 -13.06,68.44 -49.28,97.63 -109.64,97.63 -45.28,0 -83.47,-13.12 -111.68,-31.23 -8.99,-7.02 -17.06,-6.03 -24.08,3.02l-61.42 78.48c-7.02,9.05 -7.02,17.12 2.04,24.14 47.31,40.22 100.59,60.37 182.08,60.37 175.06,0 244.41,-72.44 275.65,-252.49zm-266.6 -175.06l18.11 -103.6c9.06,-52.3 45.28,-76.44 95.54,-76.44 23.16,0 47.31,4 60.36,12.07l-39.23 229.32c-15.1,11.09 -44.23,19.16 -73.43,19.16 -49.27,0 -71.39,-24.14 -61.35,-80.51zm1089.99 81.5c21.13,-117.72 -75.45,-166.01 -152.94,-183.07 -48.3,-11.09 -80.45,-20.14 -74.41,-50.33 4,-25.13 27.16,-33.2 64.37,-33.2 42.25,0 80.51,9.06 111.67,27.17 10.04,5.05 18.11,4.07 24.15,-4.99l59.31 -79.52c7.09,-9.06 6.04,-18.11 -4,-24.15 -54.33,-31.17 -107.67,-46.26 -177.03,-46.26 -121.71,0 -206.22,43.24 -227.35,144.88 -22.11,108.66 56.3,167.97 154.92,188.12 40.22,9.05 75.45,17.06 68.37,48.29 -4.99,23.09 -29.14,38.19 -77.43,38.19 -47.31,0 -91.53,-14.05 -130.77,-43.24 -9.05,-6.04 -17.12,-5.06 -24.15,4l-57.34 78.47c-6.04,8.07 -6.04,17.13 3.02,24.15 55.31,45.27 120.73,67.39 204.19,67.39 125.78,0 215.28,-49.28 235.42,-155.9zm623.28 -43.24l23.09 -126.77c21.13,-122.7 -59.31,-224.34 -197.17,-224.34 -139.82,0 -238.38,75.46 -260.49,197.17l-21.13 124.74c-23.16,127.75 58.33,228.34 193.11,228.34 147.89,0 239.42,-72.44 262.59,-199.14zm-304.85 -14.11l23.16 -129.79c8.07,-45.21 42.26,-75.39 90.55,-75.39 48.29,0 69.36,37.21 61.35,82.48l-23.16 128.74c-8.01,47.3 -40.22,75.45 -92.52,75.45 -47.31,0 -68.43,-32.21 -59.38,-81.49zm686.59 208.26c7.09,-1.05 11.09,-6.04 13.13,-16.14l16.07 -95.54c2.04,-12.07 -4,-17.12 -16.07,-16.07 -6.04,0 -13.13,0 -20.15,0 -36.22,0 -48.29,-27.17 -39.24,-75.46l88.52 -504.97c2.03,-11.09 -4,-19.16 -15.09,-19.16l-116.67 0c-10.03,0 -16.07,6.04 -18.11,16.14l-88.51 499.92c-22.11,130.77 34.19,216.27 142.84,216.27 21.13,0 39.24,-1.97 53.28,-4.99zm559.89 -531.15c-10.04,0 -17.06,5.05 -18.11,15.09l-67.38 378.2c-14.05,6.04 -38.19,11.09 -62.34,11.09 -50.32,0 -72.44,-29.2 -61.35,-91.53l50.26 -294.74c2.04,-11.09 -4,-18.11 -15.09,-18.11l-116.66 0c-10.11,0 -16.14,5.05 -18.11,15.09l-50.33 282.67c-25.13,141.86 43.24,237.39 193.17,237.39 63.39,0 139.83,-14.11 202.16,-39.24 8.07,-3.01 13.12,-9.05 15.09,-18.11l81.5 -459.69c2.03,-11.09 -3.02,-18.11 -15.1,-18.11l-117.71 0zm539.75 139.82c11.09,0 17.12,-5.05 19.16,-16.07l16.07 -92.58c2.04,-11.09 -4,-19.1 -16.07,-19.1l-80.51 0 6.03 -119.74c0.99,-11.03 -5.05,-18.05 -17.12,-18.05l-98.55 0c-11.09,0 -17.13,5.97 -19.1,16.08l-75.45 431.54c-26.18,146.85 45.27,214.24 156.95,214.24 17.06,0 36.15,-1.97 51.24,-4.99 10.11,-1.05 15.09,-7.09 17.13,-17.13l16.07 -93.56c3.02,-13.06 -4,-18.11 -16.07,-17.06 -10.04,0 -19.1,0 -27.17,0 -41.2,0 -57.35,-24.15 -49.28,-69.42l34.19 -194.16 82.48 0zm261.14 383.26c11.09,0 17.13,-6.04 19.1,-16.08l86.54 -488.89c1.97,-11.09 -4.06,-18.11 -16.14,-18.11l-116.66 0c-10.04,0 -17.13,5.05 -18.11,15.09l-86.48 488.89c-2.03,11.03 4,19.1 15.09,19.1l116.66 0zm138.84 -668.94c10.04,-54.33 -22.17,-94.55 -73.42,-94.55 -46.32,0 -80.51,29.13 -88.58,73.42 -10.04,52.29 22.18,93.57 73.49,93.57 45.21,0 80.44,-31.24 88.51,-72.44zm555.83 482.86l23.09 -126.77c21.13,-122.7 -59.31,-224.34 -197.17,-224.34 -139.82,0 -238.38,75.46 -260.49,197.17l-21.13 124.74c-23.16,127.75 58.33,228.34 193.11,228.34 147.89,0 239.42,-72.44 262.59,-199.14zm-304.85 -14.11l23.16 -129.79c8.07,-45.21 42.26,-75.39 90.55,-75.39 48.29,0 69.35,37.21 61.35,82.48l-23.16 128.74c-8.01,47.3 -40.22,75.45 -92.52,75.45 -47.31,0 -68.43,-32.21 -59.38,-81.49zm594.07 200.19c11.09,0 17.13,-5.05 19.1,-16.08l66.4 -377.22c15.09,-7.08 40.22,-12.07 64.37,-12.07 53.34,0 75.46,29.13 63.38,92.52l-50.26 293.75c-1.05,11.03 4.99,19.1 16.08,19.1l115.68 0c11.08,0 17.12,-6.04 19.09,-16.08l50.33 -281.68c25.13,-142.84 -43.24,-239.43 -195.14,-239.43 -65.42,0 -140.88,16.14 -204.26,40.22 -9.06,4.07 -13.06,10.11 -15.09,18.11l-82.48 459.76c-1.97,11.03 4.07,19.1 16.14,19.1l116.66 0zm939.15 -142.84c21.12,-117.72 -75.46,-166.01 -152.95,-183.07 -48.29,-11.09 -80.44,-20.14 -74.41,-50.33 4,-25.13 27.17,-33.2 64.37,-33.2 42.26,0 80.51,9.06 111.68,27.17 10.04,5.05 18.11,4.07 24.14,-4.99l59.32 -79.52c7.08,-9.06 6.03,-18.11 -4,-24.15 -54.33,-31.17 -107.68,-46.26 -177.03,-46.26 -121.72,0 -206.23,43.24 -227.36,144.88 -22.11,108.66 56.3,167.97 154.92,188.12 40.22,9.05 75.46,17.06 68.37,48.29 -4.99,23.09 -29.13,38.19 -77.43,38.19 -47.3,0 -91.53,-14.05 -130.77,-43.24 -9.05,-6.04 -17.12,-5.06 -24.14,4l-57.35 78.47c-6.04,8.07 -6.04,17.13 3.02,24.15 55.31,45.27 120.73,67.39 204.19,67.39 125.78,0 215.28,-49.28 235.43,-155.9z"/>
  <path class="fil0" d="M12058.55 1486c-151.51,0 -279.32,9.11 -379.78,29.19 -18.24,3.61 -27.36,5.46 -27.36,29.21l0 922.01c0,18.24 9.12,27.36 27.36,27.36l120.54 0c18.23,0 27.36,-9.12 27.36,-27.36l0 -827.07 250.11 0c82.15,0 111.42,1.84 155.18,21.92 21.92,9.11 36.56,23.75 45.67,45.59 16.47,42 29.2,109.58 29.2,220.93l0 538.63c0,18.24 9.13,27.36 27.43,27.36l116.79 0c20.15,0 31.04,-9.12 31.04,-27.36l0 -553.2c0,-197.17 -18.24,-299.47 -91.27,-357.85 -36.48,-31.04 -78.48,-49.29 -125.98,-56.63 -47.44,-9.12 -116.8,-12.73 -206.29,-12.73zm-861.79 9.11c-18.23,0 -27.36,9.13 -27.36,27.37l0 943.93c0,18.24 9.13,27.36 27.36,27.36l120.53 0c18.25,0 27.37,-9.12 27.37,-27.36l0 -943.93c0,-18.24 -9.12,-27.37 -27.37,-27.37l-120.53 0zm167.97 -292.1c0,-71.21 -36.48,-105.92 -107.67,-105.92 -71.26,0 -107.74,34.71 -107.74,105.92 0,71.19 36.48,107.67 107.74,107.67 71.19,0 107.67,-36.48 107.67,-107.67zm-472.88 1192.14c0,-69.36 -36.48,-104.07 -107.67,-104.07 -71.26,0 -107.74,34.71 -107.74,104.07 0,71.26 36.48,107.74 107.74,107.74 71.19,0 107.67,-36.48 107.67,-107.74z"/>
  <g style="clip-path:url(#id0)">
   <g id="_1561241334224">
    <image transform="matrix(-0.277377 -1.98508E-14 1.84304E-14 -0.470072 10635 4130.33)" x="0" y="0" width="39001.2" height="10381.27" xlink:href="Printkul Logo Color_Images\Printkul Logo Color_ImgID1.png"/>
   </g>
  </g>
  <path class="fil1" d="M12058.55 1486c-151.51,0 -279.32,9.11 -379.78,29.19 -18.24,3.61 -27.36,5.46 -27.36,29.21l0 922.01c0,18.24 9.12,27.36 27.36,27.36l120.54 0c18.23,0 27.36,-9.12 27.36,-27.36l0 -827.07 250.11 0c82.15,0 111.42,1.84 155.18,21.92 21.92,9.11 36.56,23.75 45.67,45.59 16.47,42 29.2,109.58 29.2,220.93l0 538.63c0,18.24 9.13,27.36 27.43,27.36l116.79 0c20.15,0 31.04,-9.12 31.04,-27.36l0 -553.2c0,-197.17 -18.24,-299.47 -91.27,-357.85 -36.48,-31.04 -78.48,-49.29 -125.98,-56.63 -47.44,-9.12 -116.8,-12.73 -206.29,-12.73zm-861.79 9.11c-18.23,0 -27.36,9.13 -27.36,27.37l0 943.93c0,18.24 9.13,27.36 27.36,27.36l120.53 0c18.25,0 27.37,-9.12 27.37,-27.36l0 -943.93c0,-18.24 -9.12,-27.37 -27.37,-27.37l-120.53 0zm167.97 -292.1c0,-71.21 -36.48,-105.92 -107.67,-105.92 -71.26,0 -107.74,34.71 -107.74,105.92 0,71.19 36.48,107.67 107.74,107.67 71.19,0 107.67,-36.48 107.67,-107.67zm-472.88 1192.14c0,-69.36 -36.48,-104.07 -107.67,-104.07 -71.26,0 -107.74,34.71 -107.74,104.07 0,71.26 36.48,107.74 107.74,107.74 71.19,0 107.67,-36.48 107.67,-107.74z"/>
  <path class="fil2" d="M9924.76 477.04c-25.53,0 -38.26,12.73 -38.26,40.81l0 1935.11c0,28.09 12.73,40.81 38.26,40.81l428.33 0c25.46,0 38.26,-12.72 38.26,-40.81l0 -1935.11c0,-28.08 -12.8,-40.81 -38.26,-40.81l-428.33 0zm-822.41 555.82c-25.53,0 -38.25,12.73 -38.25,40.81l0 999.44 -117.33 0c-112.13,7.62 -165.67,-12.79 -201.37,-51.05 -12.79,-22.89 -25.52,-104.51 -28.08,-165.67l0 -147.9 0 -634.82c0,-28.08 -12.73,-40.81 -35.69,-40.81l-428.34 0c-28.01,0 -40.74,12.73 -40.74,40.81l0 805.62c0,252.42 40.74,420.72 124.93,504.84 84.11,81.62 254.91,122.37 512.45,122.37 295.72,0 525.17,-15.29 685.8,-45.87 28.09,-7.67 35.7,-12.73 35.7,-45.92l0 -1341.04c0,-28.08 -12.73,-40.81 -35.7,-40.81l-433.38 0zm-2459.3 -555.82c-25.53,0 -38.26,12.73 -38.26,40.81l0 1935.11c0,28.09 12.73,40.81 38.26,40.81l428.32 0c25.46,0 38.26,-12.72 38.26,-40.81l0 -731.74 382.4 744.53c10.24,17.85 28.09,28.02 56.1,28.02l453.86 0c53.54,0 68.83,-22.96 43.31,-68.83l-446.19 -815.86 369.67 -527.8c22.97,-33.13 15.36,-48.42 -22.89,-48.42l-466.59 0c-22.96,0 -40.81,7.68 -53.54,25.53l-316.13 461.46 0 -1002c0,-28.08 -12.8,-40.81 -38.26,-40.81l-428.32 0zm-1008.56 267.7c-30.58,10.24 -38.27,12.73 -38.27,40.82l0 260.03 -152.94 0c-30.64,0 -45.93,12.8 -45.93,38.26l0 285.55c0,28.02 15.29,40.81 45.93,40.81l152.94 0 0 729.18c10.18,214.16 58.67,303.39 181.04,341.66 89.24,22.89 140.22,25.45 265.15,25.45 79.06,0 175.91,-10.17 285.55,-30.57 30.58,-5.12 45.87,-22.97 45.87,-56.1l0 -305.97c0,-28.02 -15.29,-40.75 -45.87,-40.75l-89.23 0c-99.41,0 -137.66,-20.4 -137.66,-122.43l0 -540.47 203.93 0c30.64,0 45.93,-12.79 45.93,-40.81l0 -285.55c0,-25.46 -15.29,-38.26 -45.93,-38.26l-203.93 0 0 -372.23c0,-33.13 -12.8,-48.43 -38.25,-40.82l-428.33 112.2zm-1062.11 275.39c-334.05,0 -560.94,15.29 -685.87,45.87 -22.96,5.12 -35.69,7.67 -35.69,40.81l0 1346.15c0,28.09 12.73,40.81 35.69,40.81l433.45 0c25.45,0 38.26,-12.72 38.26,-40.81l0 -999.44 117.24 0c109.65,0 170.8,5.11 198.88,53.54 17.85,20.4 28.02,102.02 28.02,165.75 2.56,30.56 2.56,79.05 2.56,145.33l0 634.82c0,28.09 12.73,40.81 35.7,40.81l430.88 0c25.46,0 38.25,-12.72 38.25,-40.81l0 -805.69c0,-252.35 -40.8,-420.65 -124.92,-502.21 -84.12,-84.18 -254.98,-124.93 -512.45,-124.93zm-1503.24 12.73c-25.52,0 -38.25,12.73 -38.25,40.81l0 1379.29c0,28.09 12.73,40.81 38.25,40.81l428.34 0c25.46,0 38.26,-12.72 38.26,-40.81l0 -1379.29c0,-28.08 -12.8,-40.81 -38.26,-40.81l-428.34 0zm216.73 -645.06c-183.58,0 -290.66,96.92 -290.66,257.55 0,163.18 107.08,260.02 290.66,260.02 181.04,0 288.12,-96.84 288.12,-260.02 0,-160.63 -107.08,-257.55 -288.12,-257.55zm-904.1 632.33c-173.35,0 -303.4,28.02 -387.52,86.68 -84.12,56.1 -127.49,165.68 -127.49,331.42l0 1014.73c0,28.09 12.79,40.81 38.25,40.81l428.34 0c25.52,0 38.25,-12.72 38.25,-40.81l0 -877.07c0,-101.96 38.26,-122.37 137.66,-122.37l260.09 0c30.58,0 45.87,-12.73 45.87,-40.75l0 -305.96c0,-33.14 -15.29,-50.98 -45.87,-56.1 -109.63,-20.41 -239.68,-30.58 -387.58,-30.58zm-1485.32 433.39c109.64,0 168.31,33.13 181.04,112.19 12.79,58.67 15.28,94.37 15.28,196.33 0,130.05 -15.28,214.16 -45.86,252.42 -28.03,38.25 -94.36,56.1 -193.76,56.1 -53.55,0 -99.48,-2.56 -140.22,-10.24l0 -606.8 183.52 0zm-30.57 -433.39c-175.92,0 -372.23,17.85 -591.52,56.1 -43.3,7.62 -66.27,35.7 -66.27,84.12l0 1815.3c0,28.01 12.73,40.81 38.25,40.81l428.33 0c25.47,0 38.26,-12.8 38.26,-40.81l0 -484.44c89.24,10.24 186.08,15.29 290.61,15.29 224.4,0 379.91,-56.1 464.02,-165.68 86.68,-109.64 130.05,-316.19 130.05,-614.48 0,-275.38 -50.98,-461.47 -150.45,-558.38 -99.41,-99.4 -293.17,-147.83 -581.28,-147.83z"/>
 </g>
</svg>
